<svg width="30" height="30" viewBox="0 0 30 30" fill="none" xmlns="http://www.w3.org/2000/svg">
<path d="M27.5 6.25H2.5V22.9168H27.5V6.25Z" fill="white"/>
<path d="M10.8332 6.25H2.5V22.9168H10.8332V6.25Z" fill="#007D36"/>
<path d="M27.4998 6.25H19.1666V22.9168H27.4998V6.25Z" fill="#D80027"/>
<path d="M14.9903 17.406C13.4341 17.406 12.1677 16.1398 12.1677 14.5834C12.1677 14.3607 12.3481 14.1802 12.5709 14.1802C12.7938 14.1802 12.9742 14.3607 12.9742 14.5834C12.9742 15.695 13.8787 16.5995 14.9903 16.5995C16.1019 16.5995 17.0064 15.695 17.0064 14.5834C17.0064 14.3607 17.1868 14.1802 17.4096 14.1802C17.6325 14.1802 17.8128 14.3607 17.8128 14.5834C17.8128 16.1398 16.5465 17.406 14.9903 17.406V17.406Z" fill="#4BA543"/>
<path d="M14.1882 12.5673H14.5873C15.2553 12.5673 15.7969 13.1089 15.7969 13.777V14.9866L15.2332 15.3898C14.6312 15.3898 14.1208 14.9472 14.0356 14.3512L14.1882 12.5673Z" fill="#966A5B"/>
<path d="M15.7969 14.9866H15.2332C14.8319 14.9866 14.4916 14.6915 14.4348 14.2942L14.1882 12.5673H13.8412C13.5962 12.5673 13.4077 12.784 13.4419 13.0267L13.6363 14.4082C13.7489 15.1977 14.4356 15.7931 15.233 15.7931H15.3937C15.6164 15.7931 15.7969 15.6126 15.7969 15.3899V14.9866H15.7969Z" fill="#785353"/>
</svg>
