<svg width="16" height="16" viewBox="0 0 16 16" fill="none" xmlns="http://www.w3.org/2000/svg">
<path d="M4.1883 10.2077L4.23456 9.94398L4.04076 9.7593L0.518427 6.40266C0.508852 6.39353 0.505185 6.38566 0.503226 6.37739C0.500766 6.367 0.500654 6.3528 0.505075 6.33792C0.509512 6.32298 0.516211 6.3149 0.519062 6.31226C0.519159 6.31217 0.519248 6.31207 0.519338 6.31198C0.520046 6.31126 0.520796 6.31049 0.526021 6.30975L5.4245 5.61388L5.6829 5.57717L5.80052 5.34417L7.98464 1.01763C7.98864 1.00971 7.992 1.00564 7.99362 1.00388C7.9953 1.00207 7.99637 1.00138 7.99678 1.00114C7.99763 1.00062 7.99915 1 8.00153 1C8.0039 1 8.00542 1.00062 8.00627 1.00114C8.00668 1.00138 8.00775 1.00207 8.00943 1.00388C8.01105 1.00564 8.01441 1.00971 8.01841 1.01763L10.2025 5.34417L10.3201 5.57717L10.5786 5.61388L15.477 6.30975C15.4823 6.31049 15.483 6.31126 15.4837 6.31198C15.4838 6.31207 15.4839 6.31217 15.484 6.31226C15.4868 6.3149 15.4935 6.32298 15.498 6.33792C15.5024 6.3528 15.5023 6.367 15.4998 6.37739C15.4979 6.38566 15.4942 6.39353 15.4846 6.40266L11.9623 9.7593L11.7685 9.94398L11.8148 10.2077L12.6445 14.9372C12.6479 14.9565 12.645 14.9681 12.6422 14.9752C12.6389 14.9838 12.6333 14.991 12.6272 14.9958C12.625 14.9975 12.6232 14.9986 12.6219 14.9993C12.6212 14.999 12.6203 14.9985 12.6193 14.998L8.23009 12.7421L8.00153 12.6246L7.77296 12.7421L3.38374 14.998C3.38271 14.9985 3.38183 14.999 3.3811 14.9993C3.37982 14.9986 3.37804 14.9975 3.37585 14.9958C3.3698 14.991 3.36419 14.9838 3.3608 14.9752C3.35802 14.9681 3.35518 14.9565 3.35857 14.9372L4.1883 10.2077Z" fill="url(#paint0_linear_1_6644)" stroke="#FF8C00"/>
<defs>
<linearGradient id="paint0_linear_1_6644" x1="6.10501e-05" y1="16" x2="16.0001" y2="16" gradientUnits="userSpaceOnUse">
<stop offset="0.500167" stop-color="#FF8C00"/>
<stop offset="0.500167" stop-color="white"/>
</linearGradient>
</defs>
</svg>
