<svg width="20" height="20" viewBox="0 0 20 20" fill="none" xmlns="http://www.w3.org/2000/svg">
<path d="M11.8489 6.35419L11.3281 6.87502C11.2239 7.00523 11.2239 7.18752 11.3542 7.31773L13.4375 9.32294H4.47916C4.29686 9.32294 4.16666 9.47919 4.16666 9.63544V10.3646C4.16666 10.5469 4.29686 10.6771 4.47916 10.6771H13.4375L11.3542 12.7084C11.2239 12.8386 11.2239 13.0209 11.3281 13.1511L11.8489 13.6719C11.9792 13.7761 12.1614 13.7761 12.2917 13.6719L15.7292 10.2344C15.8333 10.1042 15.8333 9.9219 15.7292 9.79169L12.2917 6.35419C12.1614 6.25002 11.9792 6.25002 11.8489 6.35419Z" fill="#1F6BFF"/>
</svg>
